HIERARCHY
ROOT Hips
{
    OFFSET 0.000000 0.000000 0.000000
    CHANNELS 6 Xposition Yposition Zposition Zrotation Xrotation Yrotation
    JOINT Spine
    {
        OFFSET -0.000000 7.236184 0.000000
        CHANNELS 3 Zrotation Xrotation Yrotation
        JOINT Spine1
        {
            OFFSET -0.000000 20.420147 0.000000
            CHANNELS 3 Zrotation Xrotation Yrotation
            JOINT Neck
            {
                OFFSET -0.000000 20.336288 1.848754
                CHANNELS 3 Zrotation Xrotation Yrotation
                JOINT Head
                {
                    OFFSET -0.000000 12.354461 -1.764923
                    CHANNELS 3 Zrotation Xrotation Yrotation
                    End Site
                    {
                        OFFSET -0.000000 22.061537 0.000000
                    }
                }
            }
            JOINT LeftShoulder
            {
                OFFSET 3.573296 18.396038 -0.314103
                CHANNELS 3 Zrotation Xrotation Yrotation
                JOINT LeftArm
                {
                    OFFSET 10.880760 0.000000 0.000000
                    CHANNELS 3 Zrotation Xrotation Yrotation
                    JOINT LeftForeArm
                    {
                        OFFSET 27.185530 0.000000 0.000000
                        CHANNELS 3 Zrotation Xrotation Yrotation
                        JOINT LeftHand
                        {
                            OFFSET 27.825975 0.000000 0.000000
                            CHANNELS 3 Zrotation Xrotation Yrotation
                            End Site
                            {
                                OFFSET 13.236923 0.000000 0.000000
                            }
                        }
                    }
                }
            }
            JOINT RightShoulder
            {
                OFFSET -3.474926 18.396038 -0.314103
                CHANNELS 3 Zrotation Xrotation Yrotation
                JOINT RightArm
                {
                    OFFSET -10.880760 0.000000 0.000000
                    CHANNELS 3 Zrotation Xrotation Yrotation
                    JOINT RightForeArm
                    {
                        OFFSET -27.185530 0.000000 0.000000
                        CHANNELS 3 Zrotation Xrotation Yrotation
                        JOINT RightHand
                        {
                            OFFSET -27.825975 0.000000 0.000000
                            CHANNELS 3 Zrotation Xrotation Yrotation
                            End Site
                            {
                                OFFSET -13.236923 0.000000 0.000000
                            }
                        }
                    }
                }
            }
        }
    }
    JOINT LeftUpLeg
    {
        OFFSET 8.824615 0.000000 0.000000
        CHANNELS 3 Zrotation Xrotation Yrotation
        JOINT LeftLeg
        {
            OFFSET -0.000000 -35.111282 0.000000
            CHANNELS 3 Zrotation Xrotation Yrotation
            JOINT LeftFoot
            {
                OFFSET -0.000000 -42.324711 0.000000
                CHANNELS 3 Zrotation Xrotation Yrotation
                JOINT LeftToeBase
                {
                    OFFSET -0.000000 -5.735999 13.236923
                    CHANNELS 3 Zrotation Xrotation Yrotation
                    End Site
                    {
                        OFFSET -0.000000 0.000000 3.529846
                    }
                }
            }
        }
    }
    JOINT RightUpLeg
    {
        OFFSET -8.824615 0.000000 0.000000
        CHANNELS 3 Zrotation Xrotation Yrotation
        JOINT RightLeg
        {
            OFFSET -0.000000 -35.111282 0.000000
            CHANNELS 3 Zrotation Xrotation Yrotation
            JOINT RightFoot
            {
                OFFSET -0.000000 -42.324711 0.000000
                CHANNELS 3 Zrotation Xrotation Yrotation
                JOINT RightToeBase
                {
                    OFFSET -0.000000 -5.735999 13.236923
                    CHANNELS 3 Zrotation Xrotation Yrotation
                    End Site
                    {
                        OFFSET -0.000000 0.000000 3.529846
                    }
                }
            }
        }
    }
}
MOTION
Frames:    7
Frame Time:    0.008333
9.881709    82.332512    104.916092    -2.774298    -9.641846    177.832062    -3.163638    -17.957544    -0.947950    1.703854    5.879734    -0.535602    1.723607    7.214321    0.810722    2.586313    1.312399    1.039875    0.336549    16.955305    -1.798762    -45.214355    48.974552    -40.605690    0.417793    -1.453380    -18.895641    22.123713    -1.506404    -0.626794    5.863482    16.935783    -6.026630    47.362736    47.118793    29.861231    1.609593    -11.002170    14.106692    -15.892609    -10.666052    -3.877021    2.689507    -16.141748    -0.274099    0.006580    17.207153    1.895299    -4.320732    -9.485891    -9.230159    -1.943526    0.310700    2.153084    -5.205644    -6.672442    4.648646    3.922256    6.807007    6.259271    -2.517837    -6.669587    -15.285789    -0.941058    -0.683205    1.018784    
9.901175    82.334991    104.914619    -2.779288    -9.686757    177.823959    -3.186665    -17.957842    -0.959822    1.737569    5.857313    -0.545202    1.737827    7.211726    0.858564    2.486670    1.362078    1.074150    0.338948    16.965887    -1.795080    -45.316177    48.973328    -40.528809    0.439873    -1.596270    -18.911119    22.145748    -1.640314    -0.599197    5.852231    16.931200    -6.027932    47.490578    47.042995    29.749971    1.603031    -11.020720    14.099340    -15.812184    -10.686692    -3.875194    2.685939    -16.167490    -0.234817    0.043766    17.172022    1.923415    -4.345881    -9.458212    -9.289084    -1.942473    0.305519    2.151937    -5.194982    -6.691403    4.607688    3.912662    6.758145    6.244955    -2.493560    -6.655542    -15.225888    -0.929463    -0.656991    1.006195    
9.920411    82.337486    104.913017    -2.784296    -9.730812    177.816055    -3.209633    -17.957788    -0.971635    1.770959    5.835176    -0.554625    1.751984    7.209116    0.905925    2.388381    1.412027    1.108301    0.341473    16.976254    -1.791361    -45.420979    48.969379    -40.449181    0.461399    -1.736321    -18.926044    22.164282    -1.771212    -0.570712    5.841013    16.926937    -6.029340    47.617653    46.966183    29.639896    1.597301    -11.038959    14.091474    -15.733496    -10.707108    -3.873077    2.682253    -16.192810    -0.196024    0.080554    17.137772    1.951019    -4.370770    -9.431113    -9.347255    -1.941575    0.300333    2.150962    -5.184657    -6.709517    4.566182    3.903375    6.709504    6.230889    -2.469564    -6.641551    -15.165945    -0.918791    -0.632240    0.994607    
9.939270    82.339973    104.911194    -2.789371    -9.773479    177.808609    -3.232484    -17.956953    -0.983059    1.803565    5.813330    -0.563909    1.766199    7.205977    0.952536    2.292664    1.462840    1.142037    0.344175    16.986031    -1.787377    -45.531406    48.961021    -40.364254    0.482040    -1.871719    -18.939741    22.176989    -1.897280    -0.540609    5.830327    16.922958    -6.031531    47.743607    46.888344    29.531311    1.592814    -11.056889    14.082805    -15.657587    -10.727285    -3.870689    2.678461    -16.217772    -0.158383    0.116261    17.105511    1.977407    -4.394984    -9.405187    -9.403443    -1.940876    0.295361    2.150207    -5.174800    -6.726292    4.523194    3.894239    6.661431    6.216735    -2.445806    -6.627830    -15.105021    -0.909685    -0.610325    0.984720    
9.957802    82.342461    104.909111    -2.794345    -9.814843    177.801971    -3.255093    -17.955208    -0.994393    1.835191    5.791882    -0.572903    1.780540    7.201906    0.998534    2.199729    1.515193    1.175632    0.347402    16.994980    -1.783122    -45.650494    48.946934    -40.271362    0.501915    -2.003002    -18.952055    22.182133    -2.018813    -0.507918    5.820182    16.919483    -6.034667    47.869198    46.808510    29.423988    1.590098    -11.074729    14.073150    -15.584599    -10.747553    -3.867722    2.675177    -16.243530    -0.123057    0.149635    17.077311    2.002135    -4.417861    -9.381544    -9.456040    -1.940543    0.290460    2.149857    -5.165429    -6.741568    4.478238    3.885594    6.613615    6.202997    -2.422153    -6.614318    -15.043554    -0.902377    -0.591698    0.976784    
9.975763    82.344864    104.906860    -2.798747    -9.854609    177.796860    -3.276771    -17.952730    -1.005429    1.865091    5.771196    -0.581874    1.795045    7.196990    1.043419    2.111108    1.568287    1.208531    0.351171    17.003122    -1.778811    -45.777626    48.926182    -40.170383    0.520489    -2.129016    -18.962776    22.178963    -2.134624    -0.472152    5.810762    16.916445    -6.038522    47.993282    46.727798    29.318893    1.589368    -11.092847    14.062894    -15.514684    -10.768267    -3.864448    2.673558    -16.271446    -0.092239    0.178292    17.056082    2.023849    -4.438090    -9.361745    -9.501714    -1.940528    0.285702    2.149858    -5.156492    -6.755398    4.431693    3.877915    6.566896    6.190195    -2.399291    -6.601274    -14.983261    -0.897052    -0.576156    0.971000    
9.993608    82.347191    104.904488    -2.802220    -9.894114    177.793839    -3.297663    -17.949286    -1.016790    1.893826    5.750506    -0.590998    1.809933    7.190286    1.088163    2.025215    1.624076    1.241637    0.355420    17.010506    -1.774156    -45.916912    48.897873    -40.057644    0.538256    -2.253622    -18.971964    22.167618    -2.248377    -0.432212    5.801818    16.913956    -6.043379    48.119019    46.643978    29.213348    1.591009    -11.112038    14.052155    -15.444746    -10.790401    -3.860594    2.674587    -16.304047    -0.066746    0.201280    17.043844    2.041788    -4.455151    -9.346510    -9.538912    -1.940893    0.280895    2.150282    -5.147479    -6.768530    4.382517    3.871357    6.520451    6.178341    -2.376945    -6.588542    -14.923911    -0.893487    -0.563062    0.967123    
